<svg version="1.1" id="Layer_1" xmlns="http://www.w3.org/2000/svg" xmlns:xlink="http://www.w3.org/1999/xlink" x="0px" y="0px"
	 width="100%" viewBox="0 0 400 320" enable-background="new 0 0 400 320" xml:space="preserve">
<path fill="#000000" opacity="1.000000" stroke="none"
	d="
M154.324631,137.004349 
	C154.318756,141.493332 154.318756,145.487991 154.318756,150.889709 
	C156.577728,139.558792 158.788986,129.566010 162.685242,120.069092 
	C167.843491,107.496201 173.711899,95.398949 185.061630,87.003189 
	C209.326492,69.053673 244.447968,84.200569 248.442062,114.136749 
	C249.851166,124.698158 248.271622,135.071854 247.726685,145.501541 
	C246.719681,164.774750 244.704544,184.019196 245.495422,203.336090 
	C245.771362,210.075928 246.116089,216.993744 248.844574,223.409531 
	C251.500580,229.654907 255.570389,230.743378 260.397522,225.971741 
	C268.601929,217.861649 272.235718,207.181458 275.573242,196.539261 
	C278.255310,187.987015 280.301697,179.227005 282.392700,170.502304 
	C283.143219,167.370850 284.593933,165.314087 287.803009,164.835373 
	C291.251038,164.321030 293.504974,166.169327 295.120941,168.961807 
	C296.498657,171.342575 296.990570,173.895401 296.460419,176.644958 
	C293.174377,193.687424 289.048309,210.473587 280.754486,225.902512 
	C271.408142,243.289505 257.214508,249.811539 238.809860,245.269531 
	C228.966599,242.840378 222.041626,236.659378 217.360977,227.883575 
	C211.233749,216.395584 208.457840,204.050705 207.561737,191.078552 
	C206.257126,172.193024 209.062729,153.591919 210.472076,134.879547 
	C211.071198,126.924889 211.458633,118.889130 210.636871,110.914780 
	C210.175491,106.437637 209.458817,101.453262 204.588409,99.672386 
	C199.430756,97.786484 195.150803,100.672539 191.698318,104.289696 
	C186.209610,110.040169 182.718872,117.103111 179.708801,124.342804 
	C169.492218,148.915314 163.565292,174.653595 159.400345,200.836823 
	C157.808441,210.844391 156.233002,220.871033 156.259064,231.054520 
	C156.268509,234.743500 153.907562,236.757294 151.029678,238.343445 
	C138.226501,245.399841 125.057816,239.599457 121.762329,225.479080 
	C119.409927,215.399628 118.605515,205.102310 117.910858,194.835815 
	C116.076508,167.725311 116.311554,140.561630 116.969620,113.423859 
	C117.210419,103.493690 117.809334,93.499390 119.661140,83.645653 
	C121.037415,76.322372 125.078865,71.703430 132.180206,69.625496 
	C137.253876,68.140869 142.401245,68.077454 147.473984,69.250694 
	C155.832489,71.183876 157.671082,74.274971 157.154892,82.692673 
	C156.055405,100.622101 155.254044,118.569809 154.324631,137.004349 
z"/>
</svg>