<svg version="1.1" xmlns="http://www.w3.org/2000/svg" xmlns:xlink="http://www.w3.org/1999/xlink" width="500px" height="500px" viewBox="0,0,256,256"><g transform="translate(51.2,51.2) scale(0.6,0.6)"><g fill="none" fill-rule="nonzero" stroke="none" stroke-width="1" stroke-linecap="butt" stroke-linejoin="miter" stroke-miterlimit="10" stroke-dasharray="" stroke-dashoffset="0" font-family="none" font-weight="none" font-size="none" text-anchor="none" style="mix-blend-mode: normal"><g><g transform="translate(25.6,25.6) scale(0.8,0.8)"><g fill-opacity="0" fill="#000000"><path d="M128,288c-88.36556,0 -160,-71.63444 -160,-160v0c0,-88.36556 71.63444,-160 160,-160v0c88.36556,0 160,71.63444 160,160v0c0,88.36556 -71.63444,160 -160,160z" id="shape"></path></g><g><g transform="translate(-211.39435,-90.58756) scale(0.66278,0.66731)"><g fill-opacity="0" fill="#000000"><path d="M454,497.75c-6.3,-1 -6.85,-1.15 -11.85,-3.55c-3.35,-1.6 -5.45,-3 -7.55,-5.1c-6.8,-6.7 -9.1,-12.05 -9.1,-21.1c0,-2.95 0.2,-6 0.45,-6.8c0.25,-0.8 0.7,-2.4 1,-3.55c0.55,-2.05 0.65,-2.15 2.55,-2.15c2,0 2,0 2,1.9c0,4 2.8,10.45 6.85,15.6c3.6,4.65 8.2,7.55 15.7,9.95c4.2,1.3 12.4,1.15 18.7,-0.4c1.1,-0.3 2.9,-0.7 4,-0.95c1.1,-0.25 4.15,-1.05 6.75,-1.7c2.6,-0.7 6.45,-1.55 8.5,-1.85c2.05,-0.35 4.95,-0.8 6.45,-1.1c3.75,-0.65 20.85,-0.55 26,0.1c6.05,0.8 9.55,1.55 19.8,4.2c8.5,2.2 9.4,2.3 16.25,2.4c6.4,0.1 7.65,-0.05 10.75,-1.05c9.1,-3.05 15.05,-8.65 19,-17.85c1.1,-2.55 2,-5.65 2.15,-7.1c0.2,-2.6 0.25,-2.65 1.85,-2.65c1.55,0 1.75,0.2 2.45,2.4c0.4,1.3 1.05,4.3 1.4,6.75c1.7,12 -3.65,22.8 -14.45,29.2c-1.85,1.15 -4.5,2.4 -5.9,2.85c-10.65,3.4 -25.35,3 -39.5,-1.1c-14.35,-4.15 -18.5,-4.85 -28.25,-4.75c-7.85,0.05 -12.05,0.7 -21,3.15c-16.6,4.55 -26.05,5.7 -35,4.25z"></path><path d="M360.55,412.25c-4.15,-1.2 -7.2,-3.1 -10.7,-6.7c-5.3,-5.45 -7.45,-9 -8.7,-14.05c-0.35,-1.25 -0.85,-3.35 -1.2,-4.75c-0.45,-1.6 -0.65,-5.65 -0.65,-11.25c0.05,-9 0.5,-12.25 2.7,-19.75c3.8,-12.85 5.45,-21.7 5.45,-29.35c0.05,-7.85 -0.8,-12.5 -6,-31.9c-2.45,-9.3 -3.05,-20 -1.45,-26.75c2.15,-8.85 4.95,-13.95 10.65,-19.2c2.05,-1.9 7.25,-4.95 9.6,-5.7c2.6,-0.8 12.7,-0.75 16.4,0.1c2.75,0.6 2.85,0.65 2.85,2.25c0,1.65 -0.1,1.7 -4.35,3.3c-12.6,4.7 -19.4,12.95 -21.25,25.85c-0.8,5.45 -0.1,10.9 2.6,20.4c1.9,6.55 3.95,15.15 4.4,18.25c2,13.35 0.9,27.45 -3.2,41.5c-2.3,8 -3.1,11.15 -3.65,14.85c-1.7,11.25 1.05,21.25 7.9,28.85c2.7,2.95 9.05,7.05 12.55,8.05c0.7,0.15 2.2,0.7 3.4,1.1c1.85,0.7 2.1,0.95 2.1,2.4c0,1.5 -0.15,1.6 -2.6,2.25c-4.1,1 -13.65,1.15 -16.85,0.25z"></path><path d="M648.5,412.7c-4.6,-0.95 -5,-1.15 -5,-2.85c0,-1.55 0.2,-1.7 2.65,-2.55c6.7,-2.3 12.3,-5.75 16,-9.85c5.75,-6.35 8.3,-12.95 8.35,-21.7c0,-5.3 -1.65,-13.6 -4.25,-21.4c-0.8,-2.4 -2,-8.15 -3.05,-14.35c-1.7,-10.5 -0.3,-30.6 2.8,-40c4.2,-12.75 5.5,-22.7 3.75,-29.3c-1.3,-5 -4.05,-9.95 -7.4,-13.35c-1.7,-1.7 -3.55,-3.45 -4.15,-3.85c-0.55,-0.4 -1.7,-1.25 -2.6,-1.9c-0.85,-0.6 -3.9,-1.9 -6.7,-2.8c-5.15,-1.7 -5.15,-1.7 -5.3,-3.7c-0.15,-1.95 -0.15,-1.95 2,-2.3c4.95,-0.7 13.75,-0.9 16.35,-0.35c3.95,0.85 10.35,4.9 14.1,9c4.7,5 7.45,10.85 8.5,18.05c0.65,4.7 0.35,18.8 -0.5,21.25c-0.3,0.85 -0.85,2.85 -1.25,4.5c-0.45,1.65 -1.45,5.5 -2.3,8.5c-2.05,7.55 -4,19.15 -4,24.1c0,4.5 1.5,14.2 3,19.15c5.55,18.6 6.75,26.65 5.5,35.65c-1.55,10.55 -4.2,16.25 -10.75,22.65c-2.5,2.5 -4.75,4.15 -7.4,5.45c-3.75,1.85 -3.9,1.9 -10.45,2.05c-3.65,0.05 -7.2,0 -7.9,-0.1z"></path><path d="M525.4,374.35c0,7.35 -5.95,13.35 -13.35,13.35c-7.35,0 -13.3,-6 -13.3,-13.35c0,-7.35 5.95,-13.35 13.3,-13.35c7.4,0 13.35,6 13.35,13.35zM508.5,387.15"></path><path d="M557.55,359.85c0,7.45 -6.05,13.5 -13.5,13.5c-7.4,0 -13.45,-6.05 -13.45,-13.5c0,-7.45 6.05,-13.45 13.45,-13.45c7.45,0 13.5,6 13.5,13.45zM540,372.55"></path><path d="M493.15,359.75c0,7.4 -5.95,13.35 -13.35,13.35c-7.35,0 -13.35,-5.95 -13.35,-13.35c0,-7.35 6,-13.35 13.35,-13.35c7.4,0 13.35,6 13.35,13.35zM472.9,371.1"></path><path d="M532.9,327.65c0,11.7 -9.55,21.2 -21.25,21.2c-11.75,0 -21.25,-9.5 -21.25,-21.2c0,-11.75 9.5,-21.25 21.25,-21.25c11.7,0 21.25,9.5 21.25,21.25zM505,347.8"></path><path d="M478.35,327.45c0,7.4 -5.95,13.35 -13.3,13.35c-7.35,0 -13.35,-5.95 -13.35,-13.35c0,-7.35 6,-13.3 13.35,-13.3c7.35,0 13.3,5.95 13.3,13.3zM459,339.35"></path><path d="M572.1,327.45c0,7.45 -6.05,13.5 -13.45,13.5c-7.45,0 -13.5,-6.05 -13.5,-13.5c0,-7.4 6.05,-13.45 13.5,-13.45c7.4,0 13.45,6.05 13.45,13.45zM552.3,339.5"></path><path d="M493.05,295.65c0,7.35 -6,13.35 -13.35,13.35c-7.4,0 -13.4,-6 -13.4,-13.35c0,-7.4 6,-13.35 13.4,-13.35c7.35,0 13.35,5.95 13.35,13.35zM473,307.2"></path><path d="M557.55,295.7c0,7.4 -6,13.4 -13.4,13.4c-7.4,0 -13.4,-6 -13.4,-13.4c0,-7.4 6,-13.4 13.4,-13.4c7.4,0 13.4,6 13.4,13.4zM537.25,307.05"></path><path d="M525.55,280.6c0,7.4 -6,13.45 -13.45,13.45c-7.4,0 -13.4,-6.05 -13.4,-13.45c0,-7.45 6,-13.45 13.4,-13.45c7.45,0 13.45,6 13.45,13.45zM505.75,292.3"></path><path d="M427.25,198.65c-1.85,-4.7 -2.4,-14.75 -1,-19.4c2.1,-6.8 6.65,-12.8 12.7,-16.7c3.15,-2.05 6.95,-3.4 12.8,-4.6c3.6,-0.75 16.7,-0.7 20.7,0.05c5.95,1.1 8.45,1.7 13.3,3.05c11.8,3.3 14.75,3.7 25.25,3.65c10.3,-0.05 9.5,0.05 21.5,-3.25c2.15,-0.6 9.05,-2.35 11.75,-2.95c1.1,-0.3 5.85,-0.85 10.5,-1.3c7.05,-0.65 9.4,-0.7 13.75,-0.2c4.9,0.55 9.6,1.75 12.5,3.15c8,3.85 14.4,11.1 16.35,18.55c1,3.7 1.1,12.1 0.2,15.3c-0.35,1.25 -0.75,2.85 -0.9,3.65c-0.25,1.2 -0.5,1.35 -2.15,1.35c-1.8,0 -1.9,-0.1 -2.2,-1.85c-0.7,-3.75 -3.55,-11.65 -4.25,-11.65c-0.2,0 -0.6,-0.6 -0.95,-1.35c-1.3,-2.85 -6.6,-7.6 -10.85,-9.8c-4.05,-2.05 -7.85,-2.85 -13.45,-2.85c-6.2,0 -15.2,1.35 -20.3,3.05c-0.95,0.3 -2.75,0.75 -4,0.95c-1.25,0.25 -4.25,0.9 -6.75,1.45c-13.5,3.05 -33.9,2.5 -47.75,-1.3c-1.5,-0.4 -3.4,-0.85 -4.25,-1c-0.8,-0.1 -1.95,-0.4 -2.5,-0.65c-1,-0.4 -2.85,-0.85 -8.15,-2.05c-1.45,-0.3 -5.15,-0.6 -8.25,-0.6c-6.4,-0.05 -9.7,0.85 -15.4,4.2c-7.1,4.1 -12.95,13.1 -13.9,21.2c-0.3,2.45 -0.35,2.5 -2.1,2.65c-1.4,0.1 -1.9,-0.05 -2.2,-0.75z"></path></g><g fill="#ffffff"><path d="M455.25,519.2c-5.65,-0.55 -14,-2.75 -19.25,-5.05c-1.75,-0.8 -7.55,-4.15 -8,-4.65c-0.15,-0.15 -1.05,-0.85 -2,-1.5c-4.75,-3.2 -12.25,-12.65 -15.25,-19.2c-4.25,-9.25 -5.7,-20.05 -4.05,-29.6c0.7,-4 3.6,-12.4 5.25,-15.4c3.2,-5.6 8,-12.85 10.5,-15.8c7.7,-9.05 15,-15.7 24.3,-22.1c8.3,-5.7 9.9,-6.5 13.85,-6.8c3.4,-0.25 3.4,-0.25 3.4,16.35c0,9.1 0.2,16.55 0.45,16.55c1.15,0 16.55,-12.5 21.2,-17.2c2.95,-3.05 4,-3.85 4.45,-3.4c0.35,0.35 1.05,0.6 1.6,0.6c0.55,0 2.2,0.3 3.65,0.6c2.5,0.6 2.65,0.7 2.65,2.15c0,2.05 1.7,8.1 3.6,13c1.95,4.9 9.2,19.45 10.1,20.2c0.5,0.45 1.55,-1.3 4.95,-8.1c5.3,-10.65 7.3,-15.85 8.9,-23.35c0.3,-1.5 0.65,-3 0.7,-3.3c0.15,-0.45 2.35,-1.05 7.9,-2.05c1.1,-0.2 1.6,0.05 2.45,1.15c1.75,2.25 8.45,8.55 11.5,10.8c1,0.75 2.1,1.7 2.5,2.05c1.15,1.1 8.8,6.85 9.2,6.85c0.15,0 0.2,-7.5 0.05,-16.65c-0.25,-16.65 -0.25,-16.65 3,-16.25c2.75,0.3 3.95,0.8 7.55,3.15c8.85,5.6 15.35,10.6 21.55,16.5c16.75,16.05 26.05,33.85 26.05,50c0,6.85 -3.1,18.1 -6.5,23.4c-0.8,1.3 -1.5,2.5 -1.5,2.6c0,0.6 -3.9,5.35 -7.05,8.55c-9.95,10.25 -24,15.7 -40.25,15.7c-7.55,0 -11,-0.5 -24.95,-3.5c-2.45,-0.55 -5.6,-1.2 -6.9,-1.5c-1.35,-0.25 -2.6,-0.6 -2.8,-0.7c-0.3,-0.2 -6.7,-0.6 -16.05,-1c-6.55,-0.3 -21.15,1.85 -28.75,4.2c-6.3,1.95 -21.25,3.4 -28,2.7zM469.5,496.15c3.5,-0.4 9.1,-1.7 18,-4.15c9.95,-2.75 12.95,-3.15 23.25,-3.15c5.25,0 10.2,0.15 11,0.35c0.85,0.2 2.85,0.55 4.5,0.8c1.65,0.25 4.6,0.95 6.5,1.55c8.85,2.65 13.45,3.8 19,4.7c7.05,1.2 18.15,0.45 24.5,-1.55c7.05,-2.25 14.35,-8.5 17.6,-15.05c3.45,-6.9 3.8,-13.1 1.25,-20.9c-0.8,-2.5 -0.8,-2.5 -1.15,0.25c-0.4,3.7 -3.6,11.05 -6.3,14.6c-9.15,12 -23.45,14.8 -45.9,8.9c-9.1,-2.4 -12.7,-3.15 -18.8,-3.95c-5.15,-0.65 -19.25,-0.75 -23,-0.1c-1.5,0.3 -4.4,0.75 -6.45,1.1c-2.05,0.3 -5.9,1.15 -8.5,1.85c-2.6,0.65 -5.65,1.45 -6.75,1.7c-1.1,0.25 -2.9,0.65 -4,0.95c-6.4,1.55 -17.75,1.8 -21.75,0.4c-8.05,-2.75 -12.05,-5.3 -15.65,-9.95c-4.05,-5.15 -6.85,-11.6 -6.85,-15.6c0,-2.55 -0.8,-2.4 -1.55,0.25c-0.3,1.15 -0.75,2.75 -1,3.55c-1.25,4.1 -0.1,12.1 2.45,17.05c2.65,5.2 7.9,10.15 13.75,13c2.55,1.25 5.05,2.25 5.55,2.25c0.45,0 1.25,0.2 1.7,0.45c0.45,0.25 2.55,0.6 4.6,0.8c2.05,0.2 3.85,0.45 4,0.6c0.25,0.25 5.4,-0.1 10,-0.7z"></path></g><g fill="#647624"><path d="M348.8,487.9c0.4,-2.6 3.4,-14.45 4.45,-17.6c1.1,-3.15 4.45,-9.55 6.35,-12c7.15,-9.1 15.45,-13.5 31.1,-16.3c1.4,-0.25 2.6,-0.35 2.7,-0.25c0.45,0.45 -0.95,11.2 -1.95,14.8c-0.9,3.35 -3.2,8.8 -4,9.45c-0.15,0.15 -0.6,0.8 -0.9,1.4c-0.65,1.2 -1.55,2.35 -4.45,5.65c-2.65,3.05 -9.5,7.9 -14.35,10.2c-4.95,2.4 -14.35,5.75 -16.1,5.75c-0.6,0 -1.25,0.25 -1.4,0.5c-0.15,0.3 -0.65,0.5 -1.05,0.5c-0.55,0 -0.65,-0.45 -0.4,-2.1z"></path><path d="M673.75,489.5c-0.55,-0.25 -2.9,-0.9 -5.25,-1.55c-2.35,-0.6 -4.45,-1.3 -4.7,-1.55c-0.3,-0.2 -0.8,-0.4 -1.2,-0.4c-1.3,0 -11.25,-5.05 -14.35,-7.25c-5.25,-3.75 -10.1,-9.2 -12.9,-14.6c-1.8,-3.5 -4.2,-12.05 -4.6,-16.4c-0.15,-1.9 -0.4,-4.15 -0.55,-4.95c-0.3,-1.4 -0.3,-1.4 1.85,-1.1c10.6,1.6 19.75,5 24.95,9.2c9.55,7.75 13.7,16 17.5,34.4c0.75,3.8 0.6,4.7 -0.75,4.2z"></path></g><g fill="#ffffff"><path d="M362.75,432.2c-10.25,-1 -21.65,-6.25 -27.95,-12.9c-4.25,-4.5 -8.85,-11.55 -10.8,-16.55c-0.65,-1.65 -1.3,-3.2 -1.5,-3.5c-0.4,-0.55 -2.1,-7.55 -3,-12.35c-0.5,-2.6 -0.75,-15.65 -0.35,-17.4c0.1,-0.4 0.35,-1.85 0.55,-3.25c0.2,-1.35 0.55,-3.3 0.8,-4.25c1.85,-7 4.2,-16.7 4.6,-19c1.45,-8.9 1.6,-22.15 0.3,-29.25c-1.15,-6.5 -1.85,-9.65 -2.95,-13.5c-3.1,-11.25 -4.3,-24.75 -2.9,-33.2c2.25,-14 8.85,-25.75 18.85,-33.7c9.25,-7.4 18.15,-10.45 30.6,-10.5c9.35,-0.05 16.9,1.75 26.5,6.25c2.95,1.4 8.85,4.75 9.5,5.4c0.5,0.5 4.3,3.3 5.55,4.1c2.4,1.5 13.2,12.55 16.25,16.65c4.65,6.15 8.05,11.5 11.7,18.35c1.15,2.2 1.5,3.5 1.5,5.7c0,2.85 0,2.85 -1.85,2.5c-1.05,-0.2 -6.5,-0.55 -12.15,-0.8c-5.65,-0.25 -12,-0.6 -14.1,-0.8c-2.15,-0.2 -3.9,-0.2 -3.9,0c0,0.45 6.35,9.95 9.6,14.3c1.5,2.05 4.25,5.25 6.1,7.1c3.7,3.7 3.9,4.55 2.7,9.75c-0.5,2 -0.85,2.65 -1.55,2.65c-3,0 -17.9,5.35 -27.3,9.8c-2.55,1.2 -4.85,2.2 -5.1,2.2c-2.55,0 4.35,4.6 13.8,9.2c6.9,3.35 14.1,6 18.05,6.65c1.4,0.2 1.55,0.45 2.1,3.1c0.85,4 0.8,4.35 -0.85,6.2c-4.15,4.65 -6.95,8.05 -10,12.1c-6.6,8.75 -8.9,12.7 -7.15,12.35c0.4,-0.05 3.2,-0.25 6.25,-0.4c3.1,-0.15 7.95,-0.45 10.85,-0.7c2.9,-0.3 7.35,-0.5 9.9,-0.5c4.6,0 4.6,0 4.6,2.3c0,1.85 -0.5,3.1 -2.55,6.55c-8.1,13.7 -17.3,24.55 -28,32.9c-8.3,6.5 -11.3,8.2 -21.2,12.3c-7.2,3 -18.5,4.85 -25.5,4.15zM376.2,410.35c2.5,-0.65 2.5,-0.65 0.25,-1.45c-1.2,-0.45 -2.75,-1 -3.45,-1.15c-3.5,-1 -9.85,-5.1 -12.55,-8.05c-3.3,-3.6 -6.6,-9.9 -7.65,-14.4c-0.9,-3.7 -1,-12.55 -0.3,-17.3c0.6,-3.85 1.35,-6.95 3.7,-15c1.1,-3.7 2.3,-8.85 2.6,-11c0.15,-0.95 0.5,-3 0.8,-4.5c0.75,-3.65 0.65,-17.6 -0.1,-22.7c-0.55,-3.35 -2.65,-12.1 -4.5,-18.55c-0.65,-2.3 -1.85,-7.25 -2.4,-9.9c-0.7,-3.45 -0.75,-10.8 -0.1,-14.45c2.2,-12.45 8.85,-20.3 21.2,-24.9c5.1,-1.95 5,-2.1 -1.95,-3.05c-8.45,-1.2 -16.05,1.75 -21.9,8.4c-0.9,1 -1.85,2.1 -2.15,2.4c-1.95,1.95 -4.95,9.05 -6.15,14.5c-1.45,6.75 -1,14.7 1.4,23.75c5.5,20.65 6.15,24.35 6,34.45c-0.1,7.75 -0.75,12.05 -3.4,22.3c-0.55,2.2 -1.5,5.6 -2.05,7.5c-2.1,7.15 -2.6,10.8 -2.65,18.5c0,4.15 0.25,8.4 0.55,9.5c0.3,1.1 0.8,3.15 1.15,4.5c1.35,5.3 3.45,8.75 8.8,14.3c5.45,5.65 10.35,7.6 17.9,7.2c2.5,-0.1 5.6,-0.5 6.95,-0.9z"></path><path d="M651,432.2c-5.4,-0.6 -12.8,-2.7 -19.5,-5.55c-2.35,-1 -4.35,-1.95 -4.5,-2.1c-0.15,-0.15 -1.05,-0.75 -2,-1.25c-9.3,-5.05 -20.5,-14.95 -28.6,-25.3c-1.6,-2.05 -3.25,-4.15 -3.65,-4.6c-0.35,-0.45 -0.95,-1.35 -1.3,-2c-0.3,-0.65 -0.75,-1.25 -0.9,-1.4c-0.4,-0.35 -2.5,-3.55 -4.8,-7.4c-1.45,-2.35 -2,-3.85 -2.15,-5.95c-0.25,-2.8 -0.25,-2.8 5.95,-2.45c18.6,1.1 27.45,1.55 27.45,1.4c0,-0.35 -6.4,-9.7 -9.15,-13.35c-1.65,-2.2 -4.8,-5.8 -7,-8c-3.95,-4 -3.95,-4 -3.6,-6.25c0.2,-1.25 0.45,-3.1 0.6,-4.1c0.2,-1.4 0.5,-1.9 1.15,-1.9c1.1,0 9.6,-2.75 12.35,-4.05c1.2,-0.5 2.25,-0.95 2.4,-0.95c0.35,0 9.4,-4.5 12,-6c4.95,-2.8 6.25,-3.65 6.25,-4.05c0,-0.6 -8.5,-4.7 -15.5,-7.45c-6.45,-2.55 -10,-3.7 -16,-5.2c-3.05,-0.75 -2.8,-0.35 -3.7,-6.95c-0.3,-2.4 -0.3,-2.4 3.35,-6c3.7,-3.7 5.7,-6.1 11.5,-14.2c3.75,-5.25 4.55,-6.6 4.15,-7.05c-0.3,-0.25 -16.55,0.5 -25.8,1.2c-7,0.55 -6.25,0.85 -6.1,-2.3c0.2,-3.15 1.75,-6.25 7,-14.25c17.55,-26.7 41,-41.95 64.35,-41.85c6.8,0.05 14.1,1.4 18.7,3.45c2.5,1.15 8.4,4.5 9.05,5.15c0.15,0.15 1.15,0.9 2.25,1.75c4.1,3.05 12.75,13.35 12.75,15.2c0,0.3 0.25,0.55 0.5,0.55c0.3,0 0.5,0.3 0.5,0.7c0,0.4 0.45,1.5 0.95,2.4c2.75,4.8 4.55,13.05 4.9,22.4c0.3,8.45 -0.4,14.25 -3.15,25.5c-2.6,10.75 -2.6,10.85 -3.3,16c-1.5,11.8 -0.55,22.4 3.6,39.75c2.9,11.9 3.25,14.3 3.2,22.25c0,10.6 -1.7,18.5 -5.7,26.5c-7.05,14.1 -17.75,22.9 -32.5,26.75c-3.15,0.8 -12.4,1.35 -16,0.95zM665.35,409.25c6.2,-3.05 12.8,-10.3 15.35,-16.75c2.15,-5.35 3.65,-14.85 3.1,-19.1c-0.2,-1.45 -0.5,-3.55 -0.6,-4.65c-0.25,-1.95 -3.5,-14.65 -5,-19.5c-2.75,-8.8 -3.95,-22.3 -2.7,-30.05c0.3,-1.9 0.65,-4 0.75,-4.7c0.6,-3.7 1.3,-6.8 2.7,-12c0.9,-3.15 1.9,-7.1 2.35,-8.75c0.4,-1.65 0.95,-3.65 1.2,-4.5c0.9,-2.6 1.2,-13.65 0.55,-18.25c-1.05,-7.2 -3.8,-13.05 -8.5,-18.05c-3.75,-4.1 -10.15,-8.15 -14.1,-9c-3.65,-0.8 -15.65,0.15 -15.35,1.15c0.1,0.3 2.5,1.25 5.3,2.2c2.8,0.9 5.85,2.2 6.7,2.8c0.9,0.65 2.05,1.5 2.6,1.9c3.15,2.3 7.35,7.25 9,10.65c2.6,5.35 3.3,8.5 3.3,15.3c0,7 -1.3,13.9 -4.5,23.55c-3.1,9.25 -4.4,27.15 -2.8,37c1.05,6.2 2.25,11.95 3.05,14.35c4.75,14.2 5.5,25.75 2.35,35.9c-1.35,4.45 -7.25,12.05 -11.2,14.55c-2.9,1.85 -8.35,4.5 -11.25,5.5c-1.45,0.5 -2.5,1 -2.4,1.15c0.8,0.75 6.7,1.45 11.15,1.3c4.8,-0.15 5.45,-0.25 8.95,-2z"></path></g><g fill="#d3ae00"><path d="M504,401.2c-10.2,-1.5 -17.65,-3.6 -24.25,-6.85c-4,-2 -9.95,-5.6 -12.75,-7.7c-3.65,-2.75 -10.9,-10.05 -13.55,-13.6c-1.35,-1.8 -2.6,-3.5 -2.85,-3.8c-1,-1.25 -5.15,-8.8 -6.35,-11.4c-2.15,-4.9 -4.15,-11.35 -5.3,-17.1c-1.75,-8.7 -1.45,-21.8 0.65,-30c2.8,-10.9 7.75,-21.1 14.1,-29.05c2.6,-3.2 10.8,-11.7 11.3,-11.7c0.15,0 0.75,-0.4 1.3,-0.9c3.55,-3.3 13.9,-8.9 20.7,-11.25c10.25,-3.5 14.2,-4.1 26,-4.05c10,0 12.7,0.35 20.6,2.65c3.45,1 11,4.05 13.65,5.55c9.6,5.4 16.75,11.55 22.95,19.75c1.9,2.45 3.55,4.8 3.7,5.25c0.15,0.4 0.4,0.85 0.6,1c0.6,0.45 4.3,7.75 5.7,11.25c3.1,7.75 4.45,13.5 5.25,22.45c0.6,6.85 -0.4,18.9 -1.95,23.8c-0.2,0.7 -0.65,2.25 -1,3.5c-0.7,2.6 -0.8,2.85 -3,8.15c-1.55,3.7 -6.2,11.75 -8.45,14.7c-5.75,7.45 -10.8,12.3 -17.75,16.95c-3.45,2.35 -11.4,6.55 -14.65,7.8c-0.65,0.2 -1.65,0.65 -2.25,0.9c-2.3,1.05 -11.3,3.05 -15.65,3.5c-4.3,0.45 -14.1,0.55 -16.75,0.2zM523.55,374.35c0,-6.35 -5.15,-11.45 -11.45,-11.45c-6.3,0 -11.45,5.1 -11.45,11.45c0,6.3 5.15,11.4 11.45,11.4c6.3,0 11.45,-5.1 11.45,-11.4zM515.6,385M555.65,359.85c0,-6.35 -5.2,-11.5 -11.55,-11.5c-6.4,0 -11.55,5.15 -11.55,11.5c0,6.4 5.15,11.55 11.55,11.55c6.35,0 11.55,-5.15 11.55,-11.55zM547.3,370.75M491.2,359.75c0,-6.3 -5.1,-11.4 -11.45,-11.4c-6.3,0 -11.4,5.1 -11.4,11.4c0,6.3 5.1,11.45 11.4,11.45c6.35,0 11.45,-5.15 11.45,-11.45zM485,369.95M530.95,327.65c0,-10.7 -8.65,-19.35 -19.3,-19.35c-10.7,0 -19.35,8.65 -19.35,19.35c0,10.65 8.65,19.3 19.35,19.3c10.65,0 19.3,-8.65 19.3,-19.3zM520.1,344.85M476.4,327.5c0,-6.3 -5.1,-11.35 -11.35,-11.35c-6.3,0 -11.35,5.05 -11.35,11.35c0,6.25 5.05,11.35 11.35,11.35c6.25,0 11.35,-5.1 11.35,-11.35zM469.3,338.05M570.15,327.45c0,-6.35 -5.15,-11.5 -11.55,-11.5c-6.35,0 -11.5,5.15 -11.5,11.5c0,6.4 5.15,11.55 11.5,11.55c6.4,0 11.55,-5.15 11.55,-11.55zM563.8,337.8M491.15,295.65c0,-6.3 -5.15,-11.4 -11.45,-11.4c-6.35,0 -11.45,5.1 -11.45,11.4c0,6.35 5.1,11.45 11.45,11.45c6.3,0 11.45,-5.1 11.45,-11.45zM484.05,305.9M555.6,295.65c0,-6.3 -5.15,-11.45 -11.45,-11.45c-6.3,0 -11.45,5.15 -11.45,11.45c0,6.35 5.15,11.45 11.45,11.45c6.3,0 11.45,-5.1 11.45,-11.45zM549.4,305.7M523.65,280.6c0,-6.4 -5.15,-11.55 -11.55,-11.55c-6.35,0 -11.5,5.15 -11.5,11.55c0,6.35 5.15,11.5 11.5,11.5c6.4,0 11.55,-5.15 11.55,-11.5zM516.3,291.2"></path></g><g fill="#ffffff"><path d="M463.35,256.7c-0.15,-0.2 -1.35,-0.4 -2.65,-0.55c-2.9,-0.25 -4.1,-0.85 -10.95,-5.55c-5.7,-3.95 -6.25,-4.35 -9.2,-6.9c-1,-0.8 -2.45,-2 -3.3,-2.65c-2.85,-2.15 -9.3,-8.7 -13.3,-13.45c-7.4,-8.8 -12.15,-16.9 -14.85,-25.35c-2.65,-8.2 -3.15,-12.3 -2.5,-20.25c0.45,-5.95 2.05,-11.75 4.75,-17.2c2.9,-5.8 8.85,-13.15 13.65,-16.75c0.95,-0.7 2.15,-1.65 2.6,-2.05c1.3,-1.15 8.15,-4.9 10.55,-5.75c9.8,-3.55 13.8,-4.25 23.9,-4.25c8.75,0.05 17.25,1.2 27.45,3.75c8.75,2.2 10.65,2.45 21.75,2.45c12.05,0 15.3,-0.4 28,-3.45c12.15,-2.9 12.95,-3 23.25,-3c13,0 17.75,1.05 27.65,6.15c4.1,2.1 6.6,3.85 10.5,7.35c15.3,13.65 20.75,32.9 14.6,51.55c-1.35,4.05 -6.25,14.3 -7.55,15.75c-0.4,0.4 -0.7,0.95 -0.7,1.15c0,0.7 -7.1,9.9 -10.15,13.15c-2.6,2.75 -6.8,6.9 -10.3,10.15c-3.7,3.4 -17.8,13.4 -20.3,14.35c-2,0.75 -5.5,1.15 -6.25,0.65c-0.5,-0.3 -0.55,-3.85 -0.3,-16.65c0.15,-8.95 0.15,-16.4 -0.1,-16.55c-0.2,-0.1 -2.5,1.45 -5.1,3.55c-2.6,2.05 -5.5,4.35 -6.45,5.05c-3.15,2.45 -9.3,7.9 -10.85,9.7c-2,2.3 -2.7,2.5 -5.95,1.65c-1.55,-0.4 -3.3,-0.75 -3.9,-0.75c-1,0 -1.25,-0.4 -1.8,-3.1c-1.8,-8.6 -5.3,-17.3 -11.65,-28.8c-2,-3.7 -2,-3.7 -3.5,-1c-6.95,12.45 -12.4,26.4 -12.4,31.55c0,1 -0.4,1.2 -3.6,1.8c-2,0.35 -3.95,0.9 -4.3,1.2c-0.45,0.35 -1.7,-0.55 -5,-3.7c-4.75,-4.6 -5.45,-5.2 -11.35,-9.85c-2.2,-1.75 -4.45,-3.55 -5,-4c-5.3,-4.35 -4.9,-5.5 -4.65,13.35c0.15,9.4 0.1,17.15 -0.1,17.3c-0.2,0.1 -0.5,0.1 -0.65,-0.05zM430,195.6c0,-2.15 1.85,-7.5 3.85,-11.2c3.15,-5.85 9.35,-10.85 16.65,-13.45c2.85,-1.05 4.15,-1.2 10.25,-1.15c3.85,0 8.25,0.3 9.75,0.65c5.55,1.2 7.25,1.65 8.25,2.05c0.55,0.25 1.7,0.55 2.5,0.65c0.85,0.15 2.75,0.6 4.25,1c13.6,3.75 31.65,4.25 44.75,1.3c2.5,-0.55 5.5,-1.2 6.75,-1.45c1.25,-0.2 3.05,-0.65 4,-0.95c5.55,-1.85 14.15,-3.05 21.8,-3.05c7.2,0 10.6,0.65 14.95,2.85c4.25,2.2 9.55,6.95 10.85,9.8c0.35,0.75 0.75,1.35 0.95,1.35c0.7,0 3.55,7.9 4.25,11.65c0.35,2.2 1,2.4 1.35,0.5c0.15,-0.8 0.55,-2.4 0.9,-3.65c2.15,-7.85 -0.85,-17.85 -7.25,-24.3c-5.4,-5.35 -11.5,-8.25 -20,-9.45c-4.4,-0.6 -6.1,-0.6 -13.05,0.05c-4.4,0.4 -8.9,0.9 -10,1.2c-2.85,0.65 -9.7,2.35 -11.75,2.95c-8.9,2.5 -17.75,4 -23.5,3.95c-6.65,-0.05 -17.05,-1.8 -26.25,-4.35c-4.7,-1.35 -6.85,-1.85 -13.15,-3.05c-3.65,-0.7 -14.7,-0.7 -18.1,0c-5.65,1.2 -9.4,2.55 -12.55,4.55c-6.05,3.9 -10.6,9.9 -12.7,16.7c-1.3,4.3 -0.85,11.8 1,16.35c0.55,1.4 1.25,0.55 1.25,-1.5z"></path></g><g fill="#647624"><path d="M388.25,212.4c-1.1,-0.25 -3.9,-0.9 -6.2,-1.45c-4.5,-1 -11.15,-4 -14.05,-6.3c-6.85,-5.45 -12.05,-13.2 -15.15,-22.65c-1.95,-5.9 -4.6,-16.45 -4.2,-16.8c0.2,-0.2 3.6,0.55 8.1,1.75c6.65,1.8 15.35,6 20.25,9.8c10.25,7.9 15.35,18.15 16.15,32.65c0.2,3.6 0.2,3.6 -1.35,3.55c-0.85,-0.05 -2.45,-0.3 -3.55,-0.55z"></path><path d="M630.2,212.15c0.1,-0.5 0.35,-2.9 0.55,-5.4c0.35,-4.45 1.6,-10.2 3.05,-13.95c2.25,-5.8 10.2,-14.4 17,-18.45c4.05,-2.4 10.7,-5.45 15.45,-7.1c2.4,-0.85 7.55,-2.2 8.45,-2.25c1.05,-0.05 -2.35,15.1 -4.55,20c-3.6,8.15 -6,11.8 -10.45,16.05c-5.65,5.3 -10.95,8.15 -18.5,9.95c-7.95,1.85 -8.65,2 -9.95,2c-1,0 -1.25,-0.2 -1.05,-0.85z"></path><g font-family="none" font-weight="none" font-size="NaN" text-anchor="start"></g></g></g></g></g></g></g></g></svg>